<svg width="30" height="26" viewBox="0 0 30 26" fill="none" xmlns="http://www.w3.org/2000/svg">
<path d="M24.7459 26C24.1588 25.9765 23.6044 25.7263 23.2017 25.3031C22.799 24.8799 22.5801 24.3173 22.592 23.7362C22.6038 23.1551 22.8456 22.6018 23.2652 22.195C23.6849 21.7882 24.2491 21.5603 24.8367 21.5603C25.4242 21.5603 25.9883 21.7882 26.408 22.195C26.8277 22.6018 27.0694 23.1551 27.0812 23.7362C27.0931 24.3173 26.8742 24.8799 26.4715 25.3031C26.0688 25.7263 25.5144 25.9765 24.9273 26H24.7459ZM7.11874 23.5972C7.11874 23.122 7.2612 22.6575 7.52811 22.2623C7.79502 21.8672 8.17441 21.5592 8.61826 21.3774C9.06212 21.1955 9.55056 21.1479 10.0218 21.2407C10.493 21.3334 10.9258 21.5622 11.2655 21.8982C11.6052 22.2343 11.8366 22.6624 11.9303 23.1285C12.024 23.5946 11.9759 24.0777 11.792 24.5167C11.6082 24.9558 11.2968 25.331 10.8974 25.5951C10.4979 25.8591 10.0283 26 9.54788 26C9.22873 26.0002 8.91263 25.9383 8.61771 25.8176C8.32279 25.697 8.05481 25.52 7.82906 25.2969C7.6033 25.0737 7.42426 24.8088 7.30207 24.5172C7.17989 24.2255 7.11697 23.9129 7.11697 23.5972H7.11874ZM10.563 18.5461C10.3279 18.5468 10.0989 18.4711 9.91144 18.3307C9.72397 18.1902 9.5883 17.9928 9.52519 17.7688L5.14467 2.11945H2.06939C1.78525 2.11945 1.51274 2.0078 1.31183 1.80907C1.11091 1.61033 0.998047 1.34078 0.998047 1.05973C0.998047 0.778672 1.11091 0.509127 1.31183 0.310391C1.51274 0.111654 1.78525 5.21136e-06 2.06939 5.21136e-06H5.94959C6.18478 -0.00072384 6.41368 0.0750594 6.60105 0.215682C6.78841 0.356304 6.92379 0.553964 6.98641 0.778212L11.3669 16.4275H23.3111L27.2838 7.41897H14.0508C13.9074 7.4231 13.7647 7.39872 13.631 7.3473C13.4973 7.29588 13.3754 7.21845 13.2725 7.11959C13.1696 7.02074 13.0878 6.90247 13.032 6.77179C12.9761 6.64111 12.9473 6.50067 12.9473 6.3588C12.9473 6.21692 12.9761 6.07648 13.032 5.9458C13.0878 5.81512 13.1696 5.69685 13.2725 5.598C13.3754 5.49915 13.4973 5.42172 13.631 5.37029C13.7647 5.31887 13.9074 5.2945 14.0508 5.29862H28.9271C29.1044 5.29858 29.279 5.34225 29.435 5.42568C29.5911 5.50911 29.7236 5.62968 29.8207 5.77649C29.9185 5.92377 29.978 6.09269 29.9938 6.26819C30.0096 6.4437 29.9814 6.62035 29.9115 6.78242L25.0125 17.9104C24.9287 18.0993 24.7913 18.2599 24.6168 18.3728C24.4424 18.4857 24.2384 18.5459 24.03 18.5461H10.563Z" fill="#E8E8E8"/>
</svg>
