<svg width="29" height="20" viewBox="0 0 29 20" fill="none" xmlns="http://www.w3.org/2000/svg">
<path d="M1.16956 20C0.523632 20 0 19.4764 0 18.8304V18.8304C0 18.1845 0.523632 17.6609 1.16956 17.6609H27.8304C28.4764 17.6609 29 18.1845 29 18.8304V18.8304C29 19.4764 28.4764 20 27.8304 20H1.16956ZM1.16956 11.0957C0.523632 11.0957 0 10.572 0 9.92609V9.92609C0 9.28015 0.523632 8.75652 1.16956 8.75652H27.8304C28.4764 8.75652 29 9.28015 29 9.92609V9.92609C29 10.572 28.4764 11.0957 27.8304 11.0957H1.16956ZM1.16956 2.33913C0.523632 2.33913 0 1.8155 0 1.16956V1.16956C0 0.523632 0.523632 0 1.16956 0H27.8304C28.4764 0 29 0.523632 29 1.16956V1.16956C29 1.8155 28.4764 2.33913 27.8304 2.33913H1.16956Z" fill="#E8E8E8"/>
</svg>
