<svg width="27" height="27" viewBox="0 0 27 27" fill="none" xmlns="http://www.w3.org/2000/svg">
<path d="M13.5 0.874977L13.4976 0.875023C12.4985 0.89413 11.517 1.14166 10.6283 1.59866C9.73988 2.0555 8.96777 2.70954 8.37107 3.51071C7.02738 5.25313 6.31291 7.39901 6.34396 9.59914C6.34435 14.3768 9.52962 18.3121 13.5 18.3121C17.4707 18.3121 20.656 14.3754 20.656 9.5931C20.656 4.81079 17.4707 0.875 13.5 0.874977ZM18.9691 16.5H18.969C18.7285 16.5 18.498 16.5955 18.328 16.7655C18.158 16.9355 18.0625 17.1661 18.0625 17.4065C18.0625 17.6469 18.158 17.8774 18.328 18.0474C18.498 18.2174 18.7285 18.3129 18.9688 18.3129C20.3857 18.3145 21.7441 18.878 22.746 19.8799C23.7478 20.8817 24.3113 22.24 24.3129 23.6568C24.3125 23.8306 24.2432 23.9973 24.1202 24.1203C23.9972 24.2433 23.8305 24.3125 23.6566 24.3129H3.34508C3.17114 24.3125 3.00446 24.2433 2.88145 24.1203C2.75849 23.9973 2.6892 23.8307 2.68876 23.6568C2.6906 22.2401 3.25422 20.8819 4.25601 19.8802C5.25784 18.8783 6.61608 18.3147 8.03288 18.3129C8.27312 18.3129 8.5035 18.2174 8.67337 18.0476C8.84328 17.8776 8.93876 17.6472 8.93876 17.4069C8.93876 17.1666 8.84328 16.9361 8.67337 16.7662C8.50346 16.5963 8.27302 16.5009 8.03272 16.5009H8.03262C6.13524 16.5025 4.31609 17.2568 2.9742 18.5982C1.6323 19.9396 0.877323 21.7585 0.875 23.6559L0.875 23.6562C0.875721 24.3107 1.13605 24.9383 1.59889 25.4011C2.06173 25.8639 2.68927 26.1243 3.34382 26.125H3.34396H23.6569H23.6571C24.3115 26.124 24.9388 25.8636 25.4014 25.4008C25.8641 24.938 26.1243 24.3106 26.125 23.6562V23.6559C26.1227 21.7587 25.368 19.94 24.0266 18.5985C22.6851 17.257 20.8663 16.5023 18.9691 16.5ZM13.5 2.68793C16.4208 2.68793 18.844 5.7552 18.844 9.59397C18.844 13.4327 16.4191 16.5 13.5 16.5C10.5809 16.5 8.15605 13.4318 8.1552 9.59394C8.15434 5.7561 10.5792 2.68793 13.5 2.68793Z" fill="#E8E8E8" stroke="#E8E8E8" stroke-width="0.25"/>
</svg>
