<?xml version="1.0" encoding="UTF-8"?>
<!DOCTYPE svg PUBLIC "-//W3C//DTD SVG 1.1//EN" "http://www.w3.org/Graphics/SVG/1.1/DTD/svg11.dtd">
<!-- Creator: CorelDRAW 2020 (64-Bit) -->
<svg xmlns="http://www.w3.org/2000/svg" xml:space="preserve" width="37px" height="37px" version="1.1" style="shape-rendering:geometricPrecision; text-rendering:geometricPrecision; image-rendering:optimizeQuality; fill-rule:evenodd; clip-rule:evenodd"
viewBox="0 0 37 37"
 xmlns:xlink="http://www.w3.org/1999/xlink"
 xmlns:xodm="http://www.corel.com/coreldraw/odm/2003">
 <defs>
  <style type="text/css">
   <![CDATA[
    .fil0 {fill:#E8E8E8;fill-rule:nonzero}
   ]]>
  </style>
 </defs>
 <g id="Слой_x0020_1">
  <metadata id="CorelCorpID_0Corel-Layer"/>
  <path class="fil0" d="M23.34 22.35c1.54,-1.69 2.46,-3.85 2.59,-6.13 0.14,-2.28 -0.52,-4.54 -1.85,-6.39 -1.33,-1.86 -3.26,-3.2 -5.46,-3.8 -2.21,-0.6 -4.55,-0.42 -6.64,0.5 -2.09,0.92 -3.8,2.54 -4.84,4.57 -1.04,2.03 -1.34,4.36 -0.87,6.59 0.47,2.24 1.7,4.24 3.48,5.68 1.78,1.43 3.99,2.21 6.28,2.2 2.15,0.01 4.25,-0.69 5.97,-1.99l7.41 7.47c0.09,0.08 0.18,0.15 0.29,0.2 0.11,0.04 0.23,0.07 0.34,0.07 0.12,0 0.24,-0.02 0.35,-0.07 0.11,-0.05 0.21,-0.12 0.29,-0.2 0.16,-0.18 0.26,-0.41 0.26,-0.65 0,-0.24 -0.1,-0.47 -0.26,-0.64l-7.34 -7.41zm-15.48 -6.82c0.01,-1.62 0.5,-3.19 1.41,-4.52 0.9,-1.34 2.18,-2.38 3.68,-2.98 1.49,-0.61 3.13,-0.77 4.71,-0.44 1.58,0.32 3.03,1.1 4.17,2.25 1.13,1.14 1.9,2.6 2.21,4.18 0.31,1.58 0.15,3.22 -0.47,4.71 -0.62,1.49 -1.67,2.76 -3.01,3.66 -1.34,0.89 -2.92,1.37 -4.53,1.37 -2.18,-0.01 -4.26,-0.89 -5.79,-2.43 -1.53,-1.54 -2.39,-3.63 -2.38,-5.8z"/>
 </g>
</svg>
